<?xml version="1.0" encoding="UTF-8"?>
<svg width="60px" height="60px" viewBox="0 0 60 60" version="1.1" xmlns="http://www.w3.org/2000/svg" xmlns:xlink="http://www.w3.org/1999/xlink">
    <!-- Generator: Sketch 55.1 (78136) - https://sketchapp.com -->
    <title>SVG icon</title>
    <desc>Created with Sketch.</desc>
    <g id="SVG-icon" stroke="none" stroke-width="1" fill="none" fill-rule="evenodd">
        <rect fill="#FFFFFF" opacity="0" x="0" y="0" width="60" height="60"></rect>
        <g id="helpdocs-icon" transform="translate(21.000000, 18.000000)" fill="#FFFFFF" fill-rule="nonzero">
            <path d="M12.5028342,19.53125 L12.5028342,24.21875 C12.5028342,24.4270833 12.4205916,24.609375 12.2561064,24.765625 C12.0916211,24.921875 11.8997217,25 11.6804081,25 L6.7458518,25 C6.52653818,25 6.33463877,24.921875 6.17015356,24.765625 C6.00566835,24.609375 5.92342574,24.4270833 5.92342574,24.21875 L5.92342574,19.53125 C5.92342574,19.3229167 6.00566835,19.140625 6.17015356,18.984375 C6.33463877,18.828125 6.52653818,18.75 6.7458518,18.75 L11.6804081,18.75 C11.8997217,18.75 12.0916211,18.828125 12.2561064,18.984375 C12.4205916,19.140625 12.5028342,19.3229167 12.5028342,19.53125 Z M19,7.8125 C19,8.515625 18.89377,9.17317708 18.6813099,9.78515625 C18.4688498,10.3971354 18.2289756,10.8951823 17.9616871,11.2792969 C17.6943986,11.6634115 17.3174534,12.0507813 16.8308513,12.4414063 C16.3442492,12.8320313 15.9501701,13.1152344 15.6486138,13.2910156 C15.3470576,13.4667969 14.928991,13.6979167 14.3944141,13.984375 C13.832423,14.2838542 13.3629548,14.7070313 12.9860095,15.2539063 C12.6090642,15.8007813 12.4205916,16.2369792 12.4205916,16.5625 C12.4205916,16.7838542 12.338349,16.9954427 12.1738638,17.1972656 C12.0093785,17.3990885 11.8174791,17.5 11.5981655,17.5 L6.66360919,17.5 C6.45800268,17.5 6.28323714,17.3795573 6.13931258,17.1386719 C5.99538802,16.8977865 5.92342574,16.6536458 5.92342574,16.40625 L5.92342574,15.5273438 C5.92342574,14.4466146 6.36890652,13.4277344 7.25986808,12.4707031 C8.15082964,11.5136719 9.13088735,10.8072917 10.2000412,10.3515625 C11.0087602,10 11.5844584,9.63541667 11.9271359,9.2578125 C12.2698135,8.88020833 12.4411522,8.38541667 12.4411522,7.7734375 C12.4411522,7.2265625 12.1224621,6.74479167 11.4850819,6.328125 C10.8477017,5.91145833 10.1109451,5.703125 9.27481191,5.703125 C8.38385036,5.703125 7.64366691,5.89192708 7.05426157,6.26953125 C6.57451304,6.59505208 5.84118314,7.34375 4.85427187,8.515625 C4.67607956,8.72395833 4.4636195,8.828125 4.21689168,8.828125 C4.05240647,8.828125 3.88106771,8.77604167 3.7028754,8.671875 L0.330928579,6.23046875 C0.152736267,6.10026042 0.0465062352,5.9375 0.0122384829,5.7421875 C-0.0220292693,5.546875 0.0156652582,5.36458333 0.125322065,5.1953125 C2.31845821,1.73177083 5.49850562,0 9.66546429,0 C10.7620324,0 11.865454,0.201822917 12.9757292,0.60546875 C14.0860043,1.00911458 15.0866227,1.54947917 15.9775843,2.2265625 C16.8685458,2.90364583 17.5950222,3.73372396 18.1570133,4.71679688 C18.7190044,5.69986979 19,6.73177083 19,7.8125 Z" id="Shape"></path>
        </g>
    </g>
</svg>